<mxfile host="app.diagrams.net" modified="2024-04-03T21:38:39.481Z" agent="Mozilla/5.0 (Windows NT 10.0; Win64; x64) AppleWebKit/537.36 (KHTML, like Gecko) Chrome/123.0.0.0 Safari/537.36" etag="Ux_0mbAKfyHQR5kFC6Jo" version="24.2.0" type="google">
  <diagram name="Página-1" id="YaodWM4rF0w2jXEnI48o">
    <mxGraphModel dx="1434" dy="790" grid="1" gridSize="10" guides="1" tooltips="1" connect="1" arrows="1" fold="1" page="1" pageScale="1" pageWidth="827" pageHeight="1169" math="0" shadow="0">
      <root>
        <mxCell id="0" />
        <mxCell id="1" parent="0" />
        <mxCell id="mkC84a64jZhmxL_3bRKL-1" value="INÍCIO" style="strokeWidth=2;html=1;shape=mxgraph.flowchart.start_1;whiteSpace=wrap;" vertex="1" parent="1">
          <mxGeometry x="40" y="40" width="100" height="60" as="geometry" />
        </mxCell>
        <mxCell id="mkC84a64jZhmxL_3bRKL-2" value="FIM" style="strokeWidth=2;html=1;shape=mxgraph.flowchart.terminator;whiteSpace=wrap;" vertex="1" parent="1">
          <mxGeometry x="170" y="40" width="100" height="60" as="geometry" />
        </mxCell>
        <mxCell id="mkC84a64jZhmxL_3bRKL-3" value="MOSTRAR&lt;span style=&quot;white-space: pre;&quot;&gt;&#x9;&lt;/span&gt;" style="strokeWidth=2;html=1;shape=mxgraph.flowchart.document2;whiteSpace=wrap;size=0.25;" vertex="1" parent="1">
          <mxGeometry x="314" y="40" width="100" height="60" as="geometry" />
        </mxCell>
        <mxCell id="mkC84a64jZhmxL_3bRKL-4" value="&lt;div&gt;&lt;br&gt;&lt;/div&gt;RECEBER" style="html=1;strokeWidth=2;shape=manualInput;whiteSpace=wrap;rounded=1;size=26;arcSize=11;" vertex="1" parent="1">
          <mxGeometry x="450" y="30" width="120" height="60" as="geometry" />
        </mxCell>
        <mxCell id="mkC84a64jZhmxL_3bRKL-10" value="" style="group" vertex="1" connectable="0" parent="1">
          <mxGeometry x="600" y="20" width="200" height="120" as="geometry" />
        </mxCell>
        <mxCell id="mkC84a64jZhmxL_3bRKL-5" value="Se" style="strokeWidth=2;html=1;shape=mxgraph.flowchart.decision;whiteSpace=wrap;" vertex="1" parent="mkC84a64jZhmxL_3bRKL-10">
          <mxGeometry width="160" height="100" as="geometry" />
        </mxCell>
        <mxCell id="mkC84a64jZhmxL_3bRKL-7" value="Sim" style="text;html=1;align=center;verticalAlign=middle;whiteSpace=wrap;rounded=0;" vertex="1" parent="mkC84a64jZhmxL_3bRKL-10">
          <mxGeometry x="10" y="90" width="60" height="30" as="geometry" />
        </mxCell>
        <mxCell id="mkC84a64jZhmxL_3bRKL-8" value="Não" style="text;html=1;align=center;verticalAlign=middle;whiteSpace=wrap;rounded=0;" vertex="1" parent="mkC84a64jZhmxL_3bRKL-10">
          <mxGeometry x="140" y="60" width="60" height="30" as="geometry" />
        </mxCell>
      </root>
    </mxGraphModel>
  </diagram>
</mxfile>
